<svg width="125" height="144" viewBox="0 0 125 144" fill="none" xmlns="http://www.w3.org/2000/svg">
<rect width="111.73" height="143.47" rx="4" fill="#231F20"/>
<path fill-rule="evenodd" clip-rule="evenodd" d="M9.09009 102.81H27.5501V41.86H27.7901L47.0701 102.81H64.6601L83.9401 41.25H84.1801V102.81H102.64V9H74.8901L56.5301 71.95H56.2901L36.8401 9H9.09009V102.81Z" fill="white"/>
<path fill-rule="evenodd" clip-rule="evenodd" d="M9 130.49H13.9V120.14C13.9 116.66 16.25 116.03 17.21 116.03C20.31 116.03 20.18 118.41 20.18 120.48V130.48H25.08V120.54C25.08 118.3 25.6 116.02 28.36 116.02C31.12 116.02 31.36 117.99 31.36 120.37V130.48H36.26V118.54C36.26 113.92 33.53 112.16 29.74 112.16C27.26 112.16 25.39 113.57 24.36 115.13C23.4 112.99 21.39 112.16 19.15 112.16C16.91 112.16 14.98 113.23 13.7 115.06H13.63V112.65H9.01001V130.49H9Z" fill="white"/>
<path fill-rule="evenodd" clip-rule="evenodd" d="M57.01 122.76C57.35 117.27 54.42 112.17 48.35 112.17C42.93 112.17 39.24 116.24 39.24 121.59C39.24 126.94 42.72 130.97 48.35 130.97C52.39 130.97 55.32 129.18 56.7 124.97H52.39C52.08 126.07 50.49 127.28 48.52 127.28C45.79 127.28 44.28 125.87 44.14 122.76H57.01ZM44.14 119.66C44.21 118.28 45.11 115.86 48.21 115.86C50.59 115.86 51.66 117.17 52.11 119.66H44.14Z" fill="white"/>
<path fill-rule="evenodd" clip-rule="evenodd" d="M66.12 107.31H61.22V112.66H58.25V115.94H61.22V126.46C61.22 130.01 63.84 130.7 66.84 130.7C67.81 130.7 68.88 130.67 69.7 130.53V126.7C69.18 126.8 68.7 126.84 68.18 126.84C66.52 126.84 66.11 126.43 66.11 124.77V115.94H69.7V112.66H66.11V107.31H66.12Z" fill="white"/>
<path fill-rule="evenodd" clip-rule="evenodd" d="M72.03 130.49H76.93V122.45C76.93 119.31 78.17 116.72 81.76 116.72C82.35 116.72 83.07 116.79 83.52 116.89V112.34C83.21 112.24 82.8 112.17 82.45 112.17C80.07 112.17 77.65 113.72 76.76 115.96H76.69V112.65H72.03V130.49Z" fill="white"/>
<path fill-rule="evenodd" clip-rule="evenodd" d="M84.27 121.59C84.27 127.25 87.89 130.97 93.48 130.97C99.07 130.97 102.73 127.24 102.73 121.59C102.73 115.94 99.11 112.17 93.48 112.17C87.85 112.17 84.27 115.9 84.27 121.59ZM89.17 121.59C89.17 118.73 90.17 115.86 93.48 115.86C96.79 115.86 97.83 118.72 97.83 121.59C97.83 124.46 96.83 127.28 93.48 127.28C90.13 127.28 89.17 124.42 89.17 121.59Z" fill="white"/>
<path fill-rule="evenodd" clip-rule="evenodd" d="M119.53 138.93H120.3L121.58 141.05H122.5L121.11 138.87C121.85 138.79 122.41 138.41 122.41 137.51C122.41 136.5 121.8 136.08 120.6 136.08H118.72V141.05H119.54V138.93H119.53ZM119.53 138.23V136.78H120.51C121 136.78 121.59 136.85 121.59 137.45C121.59 138.17 121.05 138.23 120.44 138.23H119.53ZM124.81 138.49C124.81 135.79 122.77 134 120.42 134C118.07 134 116 135.79 116 138.49C116 141.05 117.84 142.98 120.42 142.98C122.77 142.98 124.81 141.19 124.81 138.49ZM123.85 138.49C123.85 140.69 122.34 142.2 120.42 142.2C118.28 142.2 116.96 140.53 116.96 138.49C116.96 136.31 118.47 134.78 120.42 134.78C122.37 134.78 123.85 136.3 123.85 138.49Z" fill="#231F20"/>
</svg>
